<?xml version="1.0" encoding="utf-8"?>
<!-- Generator: Adobe Illustrator 27.2.0, SVG Export Plug-In . SVG Version: 6.00 Build 0)  -->
<svg version="1.1" id="Ebene_1" xmlns:svgjs="http://svgjs.com/svgjs"
	 xmlns="http://www.w3.org/2000/svg" xmlns:xlink="http://www.w3.org/1999/xlink" x="0px" y="0px" viewBox="0 0 512 512"
	 style="enable-background:new 0 0 512 512;" xml:space="preserve">
<style type="text/css">
	.st0{fill:none;}
	.st1{fill:#2D3A3E;}
	.st2{fill:#FFFFFF;}
	.st3{fill:#31B644;}
</style>
<g>
	<path class="st0" d="M512,256c0,36.8-7.8,71.7-21.7,103.3c-2.1,4.7-4.3,9.4-6.7,14v0c-3.2,6.2-6.7,12.3-10.4,18.3
		c-6.1,9.7-12.8,19-20.1,27.8c-5.1,6.2-10.6,12.1-16.3,17.8c-8.1,8.1-16.8,15.7-25.9,22.6c-17.3,13.1-36.1,24-56.1,32.4
		c-10.5,4.4-21.3,8.1-32.3,11h0c-7.1,1.9-14.2,3.5-21.5,4.8c-14.8,2.6-29.9,3.9-44.9,3.9c-1.6,0-3.1,0-4.7-0.1
		c-11.7-0.2-23.4-1.2-35-3c-16.2-2.5-32.1-6.6-47.6-12.2c-28.4-10.3-54.5-25.5-77.2-44.6c-27.6-23.2-50.2-52.1-66.1-84.8
		C9.1,333.7,0,295.9,0,256C0,114.6,114.6,0,256,0S512,114.6,512,256z"/>
	<path class="st1" d="M445.4,424.7l-144.4,83.4c7.2-1.3,14.4-2.9,21.5-4.8h0c11-2.9,21.8-6.6,32.3-11l56.1-32.4
		c9.1-6.9,17.8-14.5,25.9-22.6c5.7-5.7,11.1-11.6,16.3-17.8C450.6,421.4,448.1,423.1,445.4,424.7L445.4,424.7z M452,123.5l-155.8-90
		c-23.6-13.6-53-13.6-76.6,0l-155.8,90c-23.6,13.6-38.3,39.1-38.3,66.3v177.5c15.9,32.8,38.5,61.7,66.1,84.8l77.2,44.6
		c15.4,5.6,31.4,9.7,47.6,12.2l-146-84.3c-19.5-11.3-31.7-32.3-31.7-54.9v-180c0-22.6,12.1-43.6,31.7-54.9l155.8-90
		c9.6-5.6,20.6-8.5,31.7-8.5c11,0,21.9,2.8,31.7,8.5l155.8,90c13.6,7.8,23.6,20.4,28.4,34.8c2.2,6.5,3.3,13.2,3.3,20.1v180
		c0,7.5-1.3,14.8-3.9,21.8c3.7-5.9,7.2-12,10.4-18.3v0c2.4-4.6,4.6-9.3,6.7-14V189.8C490.3,162.5,475.6,137.1,452,123.5L452,123.5z"
		/>
	<path class="st1" d="M483.7,189.5v180.3c0,1.2,0,2.4-0.1,3.5v0c-3.2,6.2-6.7,12.3-10.4,18.3c-6.1,9.7-12.8,19-20.1,27.8
		c-5.1,6.2-10.6,12.1-16.3,17.8l-114.4,66h0c-7.1,1.9-14.2,3.5-21.5,4.8c-14.8,2.6-29.9,3.9-44.9,3.9c-1.6,0-3.1,0-4.7-0.1
		c-1.5-3.2-2.4-6.8-2.4-10.7V321c0-25,13.3-48.1,35-60.6l155.8-90c2.8-1.6,5.7-3,8.6-4.2c9-3.6,18.6-1.8,25.5,3.5
		C479.7,174.2,483.7,181.3,483.7,189.5L483.7,189.5z"/>
	<path class="st2" d="M347.6,384.7c0-18.2-16-18.2-23.7-18.2s-12.7-2.2-12.7-10.5s9.9-19.8,27.5-17.1l7.2-18.2c0,0-8.3-1.3-18.2,1.1
		v-16.6l-14.3,8.3v14.8c-9.3,6.8-17.1,19.3-17.1,41.9c0,9.9,5,19.3,21.5,19.3c16.5,0,17.1,14.9,8.3,23.7s-28.6,8.8-28.6,8.8
		l-2.8,19.8c0,0,8.5,0,18.7-3.3v17l14.3-8.3v-15.6C339.5,424,349.4,409.9,347.6,384.7L347.6,384.7z"/>
	<path class="st3" d="M413.1,409.5l-43.5,28.1v-15.4l43.5-28.1V409.5z"/>
</g>
</svg>
