<svg xmlns="http://www.w3.org/2000/svg" version="1.1" xmlns:xlink="http://www.w3.org/1999/xlink" xmlns:svgjs="http://svgjs.com/svgjs" width="512" height="512" x="0" y="0" viewBox="0 0 1.707 1.707" style="enable-background:new 0 0 512 512" xml:space="preserve" class=""><g><g fill-rule="nonzero"><g fill="#525252"><path d="M.929.648C.936.623.897.613.89.638l-.112.42c-.007.026.031.036.038.01zM.703 1.017c.019.019.047-.01.028-.028L.596.853.73.718C.75.699.721.67.703.689l-.15.15a.02.02 0 0 0 0 .028l.15.15zM.975.989c-.018.019.01.047.029.028l.15-.15a.02.02 0 0 0 0-.028l-.15-.15C.985.671.957.7.975.718l.136.135L.975.99z" fill="#4a5568" data-original="#525252" class=""></path></g><path fill="#4a5568" d="M.851 1.256a.402.402 0 0 1-.4-.416C.457.613.688.392.957.464a.403.403 0 0 1-.107.792zm.785-.053.07-.26a.02.02 0 0 0-.013-.025L1.53.861a.672.672 0 0 0-.025-.19l.141-.097c.01-.006.014-.017.008-.027L1.52.314a.02.02 0 0 0-.027-.009l-.156.076a.672.672 0 0 0-.152-.117l.032-.169a.02.02 0 0 0-.014-.024L.943 0a.02.02 0 0 0-.025.012L.861.177a.672.672 0 0 0-.19.025L.574.06C.568.05.557.047.547.053L.314.187a.02.02 0 0 0-.009.027L.381.37a.672.672 0 0 0-.117.152L.095.49a.02.02 0 0 0-.024.014L0 .764a.02.02 0 0 0 .012.025l.164.057c0 .064.008.128.025.19l-.142.096c-.01.006-.013.018-.007.028l.134.232a.02.02 0 0 0 .027.01l.156-.076a.672.672 0 0 0 .152.117l-.032.169a.02.02 0 0 0 .014.024l.26.07a.02.02 0 0 0 .025-.013l.057-.163a.673.673 0 0 0 .19-.025l.096.141c.007.01.018.014.028.008l.232-.134a.02.02 0 0 0 .01-.027l-.076-.156a.672.672 0 0 0 .117-.152l.169.032a.02.02 0 0 0 .024-.014z" data-original="#393939" class=""></path></g></g></svg>